<svg xmlns="http://www.w3.org/2000/svg"  id="dribbble"><g><g><rect width="35" height="35" fill="#f25b98" rx="6.48" ry="6.48"></rect><path fill="#fff" d="M14.44 6.68a7.75 7.75 0 1 0 7.75 7.75 7.76 7.76 0 0 0-7.75-7.75zm5 3.78a6.37 6.37 0 0 1 1.37 3.59 11.65 11.65 0 0 0-4.36-.05c-.16-.37-.32-.73-.49-1.07a9.34 9.34 0 0 0 3.48-2.46zm-1-1a7.9 7.9 0 0 1-3.14 2.21l-.4-.68a21.67 21.67 0 0 0-2-2.79 6.38 6.38 0 0 1 5.54 1.27zm-6.91-.76A20.11 20.11 0 0 1 14 12.15a20.56 20.56 0 0 1-5.78.7 6.41 6.41 0 0 1 3.35-4.12zM8 14.44v-.22h.58a23.17 23.17 0 0 0 3.76-.3 17.09 17.09 0 0 0 2.28-.54q.22.45.44.93A9.92 9.92 0 0 0 12 16a11.26 11.26 0 0 0-2.37 2.63A6.37 6.37 0 0 1 8 14.44zm2.61 5.14a9.88 9.88 0 0 1 2.2-2.51 8.54 8.54 0 0 1 2.77-1.5 21.22 21.22 0 0 1 1.15 4.81 6.38 6.38 0 0 1-6.12-.8zm7.41.11A22.64 22.64 0 0 0 17 15.26a10.56 10.56 0 0 1 3.79.17 6.39 6.39 0 0 1-2.73 4.27z"></path></g></g></svg>